<svg xmlns="http://www.w3.org/2000/svg" viewBox="0 0 1433.26 554.08"><title>VctrRecurso 1</title><g id="Capa_2" data-name="Capa 2"><g id="Capa_1-2" data-name="Capa 1"><path d="M528.87,231.05c-.36,5.14-2.75,23-20.74,23-20.83,0-21.83-24.65-21.83-42.87,0-22.07,5.34-41.09,22.9-41.09,18.45,0,19.19,18.38,19.31,22.4h-5.6c-.12-2.76-.83-17.19-13.83-17.19-15.24,0-17.05,21.62-17.05,35.77,0,18.43,2.15,37.78,16.34,37.78,12.29,0,14.53-13,14.89-17.79Z"/><path d="M577.51,222.07c0,20.69-6.53,32-19.31,32-13.49,0-19.54-10.9-19.54-31.84,0-20.57,7.6-30.3,19.67-30.3C570.64,191.89,577.51,201.87,577.51,222.07Zm-33.36.24c0,18.61,5.33,26.88,13.94,26.88,8.84,0,13.93-8.5,13.93-27.12,0-16.74-4.86-25.34-13.93-25.34C549.61,196.73,544.15,203.8,544.15,222.31Z"/><path d="M589.94,211.36c0-12.26-.12-16-.12-18.51h5.11c.13,1.44.25,3.73.25,9,2.15-5.59,6.58-9.92,14.87-9.92,8,0,15.5,4.14,15.5,18.28V253h-5.36v-42c0-8.24-3.2-14.08-10.85-14.08-10,0-14,6.88-14,21.31V253h-5.36Z"/><path d="M641.67,236.21c.59,8,4.87,13,12.52,13,7.85,0,11.66-5,11.66-11.54,0-7.5-4-10.72-12.42-14.07-11.24-4.47-15-8.57-15-16.76,0-7.94,4.82-15,15.72-15,11.87,0,15.71,8,15.83,16.05h-5.35c-.24-3.34-1.18-11.23-10.73-11.23-7,0-10,4.29-10,10,0,5.49,2,8.23,11.13,11.82,10.86,4.33,16.26,8.2,16.26,18.88,0,10.37-6.51,16.63-17.51,16.63s-17-6.77-17.5-17.82Z"/><path d="M685.26,223.22c0,14.5,2.73,26,13.48,26,11.08,0,12.51-10.94,12.87-12.63H717c-.13,1.33-2,17.47-18.23,17.47-16.53,0-18.83-16.11-18.83-30.9,0-19,6-31.24,19.43-31.24,14.72,0,18.11,13,18.11,27.55,0,.52,0,2-.13,3.78Zm26.82-4.69c0-13.3-3.19-21.8-12.87-21.8-13,0-13.59,17.82-13.82,21.8Z"/><path d="M729.62,213.4c0-9.39,0-16.22-.12-20.55h5.11c.12,1.9.25,4.9.25,11.27,2.75-7.56,8.86-12,16-12.11v5.63c-10.68.7-16,9.58-16,20.41V253h-5.24Z"/><path d="M762.75,192.85c5.73,21.06,13,47.8,14.07,53.43h.12c.61-4.91,12.24-44.46,14.67-53.43H797L779.56,253h-5.74l-16.57-60.1Z"/><path d="M836.23,244a88.73,88.73,0,0,0,.48,9h-4.87a43,43,0,0,1-.6-7.65c-2.17,5.61-7.07,8.73-14.64,8.73-11.54,0-15.51-8.9-15.51-17.09,0-10.14,6.77-18.89,22.85-18.89a59.23,59.23,0,0,1,7.16.24v-9c0-5.48-1.18-12.62-10.72-12.62-10.82,0-11.3,7.95-11.66,12h-5.23c.24-8.43,4.32-16.86,17-16.86,10.87,0,15.72,5.53,15.72,16.37Zm-5-20.86a45.49,45.49,0,0,0-6.92-.36c-12.51,0-17.86,6.08-17.86,13.94,0,6.78,3.68,12.51,11,12.51,9.91,0,13.82-6.81,13.82-21.94Z"/><path d="M843.86,192.85h8.88V176.18h5.12v16.67h11.26v4.84H857.86v43.74c0,4.54,1.08,7.52,5.76,7.52a28.67,28.67,0,0,0,4.77-.35v4.34a20.52,20.52,0,0,1-6.18.85c-5.39,0-9.47-2.43-9.47-11V197.69h-8.88Z"/><path d="M912.84,222.07c0,20.69-6.53,32-19.31,32C880,254,874,243.13,874,222.19c0-20.57,7.6-30.3,19.67-30.3C906,191.89,912.84,201.87,912.84,222.07Zm-33.37.24c0,18.61,5.34,26.88,13.95,26.88,8.83,0,13.93-8.5,13.93-27.12,0-16.74-4.86-25.34-13.93-25.34C884.93,196.73,879.47,203.8,879.47,222.31Z"/><path d="M925.27,213.4c0-9.39,0-16.22-.12-20.55h5.11c.12,1.9.24,4.9.24,11.27,2.76-7.56,8.87-12,16-12.11v5.63c-10.67.7-16,9.58-16,20.41V253h-5.24Z"/><path d="M954.93,192.85h5.25V253h-5.25Zm0-25.53h5.25v11.59h-5.25Z"/><path d="M1011.44,222.07c0,20.69-6.52,32-19.31,32-13.49,0-19.54-10.9-19.54-31.84,0-20.57,7.61-30.3,19.67-30.3C1004.57,191.89,1011.44,201.87,1011.44,222.07Zm-33.36.24c0,18.61,5.33,26.88,13.94,26.88,8.84,0,13.94-8.5,13.94-27.12,0-16.74-4.87-25.34-13.94-25.34C983.54,196.73,978.08,203.8,978.08,222.31Z"/><path d="M1082,167.32v71c0,5,0,11,.12,14.59H1077c-.13-1.56-.25-6.1-.25-9.19-1.92,5.85-5.88,10.27-14.63,10.27-12.39,0-17.91-10.13-17.91-31.85,0-19.68,7.77-30.29,19.49-30.29,8.6,0,11.61,3.93,13,7.27V167.32Zm-32.29,54.87c0,19.58,4.87,26.76,13.23,26.76,10.73,0,13.83-9.53,13.83-27,0-19.93-3.32-25.09-13.11-25.09C1055.49,196.85,1049.66,204.47,1049.66,222.19Z"/><path d="M1099.74,223.22c0,14.5,2.72,26,13.47,26,11.08,0,12.51-10.94,12.87-12.63h5.35c-.12,1.33-2,17.47-18.22,17.47-16.54,0-18.83-16.11-18.83-30.9,0-19,6-31.24,19.42-31.24,14.73,0,18.11,13,18.11,27.55,0,.52,0,2-.12,3.78Zm26.81-4.69c0-13.3-3.19-21.8-12.87-21.8-13,0-13.58,17.82-13.82,21.8Z"/><path d="M1167.51,210.88c0-9.9,0-15-.12-18h5.12c.24,2.14.24,5.38.24,8.72,2.18-5.63,6.28-9.68,13.58-9.68,6.14,0,10.81,2.53,12.61,9.46,1.94-5.26,6.73-9.46,14.43-9.46,6.77,0,14.09,3.15,14.09,17.09v44h-5.24V210.08c0-6.92-1.92-13.23-9.9-13.23-8.94,0-12.15,8.44-12.15,17V253h-5.24V210.32c0-8.7-2.87-13.47-9.66-13.47-8.24,0-12.51,8.32-12.51,18.13v38h-5.25Z"/><path d="M1278.19,237.28c0,6.77,0,12.9.12,15.67h-5a65.49,65.49,0,0,1-.36-9c-1.82,6.23-7.32,10-14.87,10-5.95,0-15-2-15-17.91V192.85h5.37v41.9c0,8.83,2.73,14.43,10.83,14.43,7.52,0,13.58-4.88,13.58-20.14V192.85h5.36Z"/><path d="M1294.19,236.21c.59,8,4.87,13,12.52,13,7.85,0,11.66-5,11.66-11.54,0-7.5-4-10.72-12.42-14.07-11.24-4.47-15-8.57-15-16.76,0-7.94,4.82-15,15.72-15,11.87,0,15.71,8,15.83,16.05h-5.35c-.24-3.34-1.18-11.23-10.73-11.23-7,0-10,4.29-10,10,0,5.49,2,8.23,11.13,11.82,10.87,4.33,16.26,8.2,16.26,18.88,0,10.37-6.51,16.63-17.51,16.63s-17-6.77-17.5-17.82Z"/><path d="M1335.06,192.85h5.25V253h-5.25Zm0-25.53h5.25v11.59h-5.25Z"/><path d="M1389.4,235.92c-.24,2.11-1.68,18.11-17.75,18.11-14.72,0-18.93-13.94-18.93-31.14,0-17.51,5.64-31,19.77-31,16,0,16.9,15.54,16.91,17.86h-5.49c-.12-2.52-1.3-13-11.42-13-10.36,0-14.29,11.19-14.29,26,0,16.27,4.16,26.42,13.69,26.42,10.14,0,11.56-10.25,12-13.27Z"/><path d="M1432.78,244c0,4.3.36,7.63.48,9h-4.86a43,43,0,0,1-.6-7.65c-2.17,5.61-7.08,8.73-14.64,8.73-11.54,0-15.52-8.9-15.52-17.09,0-10.14,6.77-18.89,22.86-18.89a59.31,59.31,0,0,1,7.16.24v-9c0-5.48-1.19-12.62-10.72-12.62-10.82,0-11.31,7.95-11.67,12H1400c.24-8.43,4.33-16.86,17-16.86,10.86,0,15.71,5.53,15.71,16.37Zm-5-20.86a45.42,45.42,0,0,0-6.91-.36c-12.52,0-17.87,6.08-17.87,13.94,0,6.78,3.68,12.51,11,12.51,9.92,0,13.82-6.81,13.82-21.94Z"/><path d="M676.09,369.08H638.83V402.8h41.83l-2.56,17.89H618.31V304.59h59.54v18.19h-39V351h37.26Z"/><path d="M764.15,377.51c0-19.82.34-42.45.68-55.63h-.47c-4,22-10.44,61.22-18,98.81H727.55c-5.63-35-12.3-76.69-16-99.13h-.65c.69,13.55,1.2,37.88,1.2,57.94v41.19h-19V304.59h31.08c6.07,32.09,11.4,64.5,13.73,81.44h.17c2.37-15.75,9.64-50.73,15.7-81.44h30.33v116.1H764.15Z"/><path d="M875.5,377.51c0-19.82.34-42.45.69-55.63h-.48c-4,22-10.44,61.22-18,98.81H838.9c-5.62-35-12.29-76.69-16-99.13h-.64c.68,13.55,1.2,37.88,1.2,57.94v41.19h-19V304.59H835.5c6.08,32.09,11.4,64.5,13.74,81.44h.17c2.36-15.75,9.63-50.73,15.69-81.44h30.34v116.1H875.5Z"/><path d="M932.83,391.47l-5.77,29.22H906.24l26.88-116.1h27l27.18,116.1H965.47l-5.78-29.22Zm23.16-18c-4.33-22.22-7.8-38.46-9.62-49.55h-.5c-1.41,10.69-5.09,28.13-9.36,49.55Z"/><path d="M997.15,420.69V304.59h23.61c24,64.16,28.61,76.4,30,82.09h.17c-1-13.95-1-31-1-50.06v-32h18.58v116.1h-22.64c-24.8-68.41-29.2-80.74-30.7-86.06H1015c.86,14.3.88,31.4.88,52.2v33.86Z"/><path d="M1108.41,304.59v79.88c0,9.51,2.37,20.8,15.15,20.8,12.37,0,15-9.51,15-20.67v-80h20.83v80.33c0,20.84-8.14,37.78-36.18,37.78-27.61,0-35.65-15.93-35.65-37.79V304.59Z"/><path d="M1235.43,369.08h-37.26V402.8H1240l-2.56,17.89h-59.79V304.59h59.54v18.19h-39V351h37.26Z"/><path d="M1252.63,304.59h20.82V403h39.73l-2,17.74h-58.53Z"/><path d="M391.77,108l-32.7-18.88L204.79,0,50.51,89.08,17.82,108,0,118.24,1.24,554.08,204.79,436.55,408.35,554.08l1.24-435.84ZM341.4,448.25,204.79,369.37,68.19,448.25l-.36-126.56,60.5-34.93,34.48-19.91,42-24.24,42,24.24,34.48,19.91,60.51,34.93Zm.73-257.13-.15,52,0,10.84L335.2,250l-27.7-16-102.71-59.3L102.09,234,74.38,250l-6.75,3.9,0-10.84-.14-52-.13-43.32L204.79,68.43,342.25,147.8Z"/></g></g></svg>