<?xml version="1.0" encoding="utf-8"?>
<!-- Generator: Adobe Illustrator 24.0.0, SVG Export Plug-In . SVG Version: 6.00 Build 0)  -->
<svg version="1.1" id="Capa_1" xmlns="http://www.w3.org/2000/svg" xmlns:xlink="http://www.w3.org/1999/xlink" x="0px" y="0px"
	 viewBox="0 0 394.6 779.3" style="enable-background:new 0 0 394.6 779.3;" xml:space="preserve">
<style type="text/css">
	.st0{opacity:0.6;}
	.st1{fill:#E6D4FF;}
</style>
<title>leftArrow</title>
<g class="st0">
	<path class="st1" d="M319.7,784.4c0,5.4-2,6.6-4.4,2.6L76.7,396.3c-2.4-3.9-2.4-10.4,0-14.4c0,0,0,0,0-0.1L315.3-7.8
		c2.4-4,4.4-2.6,4.4,3.1v2.9c0,5.6-2,13.5-4.4,17.4L90.8,381.9c-2.4,4-2.4,10.4,0,14.4c0,0,0,0,0,0l224.6,371
		C317.8,771.3,319.7,779,319.7,784.4z"/>
</g>
</svg>
