<svg xmlns="http://www.w3.org/2000/svg" viewBox="0 0 946.96 837.75"><title>VctrRecurso 1</title><g id="Capa_2" data-name="Capa 2"><g id="Capa_1-2" data-name="Capa 1"><path d="M48,656.38c-.36,5.15-2.75,23-20.74,23-20.83,0-21.83-24.64-21.83-42.86,0-22.07,5.34-41.09,22.9-41.09,18.45,0,19.19,18.38,19.31,22.39H42c-.13-2.76-.84-17.19-13.84-17.19-15.24,0-17,21.63-17,35.78,0,18.43,2.15,37.77,16.34,37.77,12.29,0,14.54-13,14.9-17.79Z" transform="translate(-5.38)"/><path d="M96.59,647.4c0,20.7-6.52,32-19.31,32-13.49,0-19.54-10.91-19.54-31.85,0-20.56,7.61-30.3,19.68-30.3C89.72,617.22,96.59,627.21,96.59,647.4Zm-33.36.24c0,18.62,5.33,26.88,13.94,26.88,8.84,0,13.94-8.49,13.94-27.11,0-16.75-4.87-25.34-13.94-25.34C68.69,622.07,63.23,629.14,63.23,647.64Z" transform="translate(-5.38)"/><path d="M109,636.7c0-12.26-.12-16-.12-18.51H114c.12,1.44.24,3.73.24,8.95,2.16-5.6,6.59-9.92,14.87-9.92,8,0,15.5,4.13,15.5,18.27v42.79h-5.36v-42c0-8.24-3.2-14.08-10.85-14.08-10,0-14,6.88-14,21.3v34.79H109Z" transform="translate(-5.38)"/><path d="M160.76,661.54c.58,8,4.86,13,12.51,13,7.86,0,11.66-5,11.66-11.54,0-7.49-4-10.72-12.42-14.07-11.24-4.46-15-8.57-15-16.75,0-7.94,4.81-15,15.71-15,11.87,0,15.71,8,15.83,16h-5.35C183.5,629.93,182.56,622,173,622c-7,0-10,4.28-10,10,0,5.49,2,8.23,11.14,11.81,10.86,4.34,16.25,8.21,16.25,18.88,0,10.37-6.51,16.63-17.51,16.63s-17-6.77-17.5-17.82Z" transform="translate(-5.38)"/><path d="M204.35,648.55c0,14.51,2.72,26,13.47,26,11.08,0,12.51-10.95,12.87-12.64H236c-.12,1.34-2,17.48-18.23,17.48-16.53,0-18.82-16.12-18.82-30.91,0-19,6-31.24,19.42-31.24,14.72,0,18.11,13,18.11,27.55,0,.52,0,2-.12,3.78Zm26.81-4.69c0-13.29-3.19-21.8-12.87-21.8-13,0-13.58,17.82-13.82,21.8Z" transform="translate(-5.38)"/><path d="M248.7,638.73c0-9.38,0-16.22-.12-20.54h5.12c.12,1.9.24,4.89.24,11.26,2.75-7.55,8.86-12,16-12.11V623c-10.68.7-16,9.57-16,20.4v34.9H248.7Z" transform="translate(-5.38)"/><path d="M281.83,618.19c5.73,21.06,13,47.79,14.07,53.42H296c.62-4.9,12.24-44.46,14.68-53.42h5.36l-17.41,60.09H292.9l-16.57-60.09Z" transform="translate(-5.38)"/><path d="M355.31,669.29c0,4.3.36,7.64.48,9h-4.87a43.8,43.8,0,0,1-.6-7.64c-2.16,5.61-7.07,8.72-14.64,8.72-11.53,0-15.51-8.9-15.51-17.08,0-10.15,6.77-18.89,22.85-18.89a59.41,59.41,0,0,1,7.17.24v-9c0-5.49-1.19-12.63-10.72-12.63-10.83,0-11.31,8-11.67,12h-5.23c.24-8.42,4.33-16.86,17-16.86,10.87,0,15.72,5.54,15.72,16.37Zm-5-20.86a45.85,45.85,0,0,0-6.92-.35c-12.51,0-17.86,6.07-17.86,13.94,0,6.77,3.68,12.51,11,12.51,9.91,0,13.82-6.82,13.82-21.94Z" transform="translate(-5.38)"/><path d="M363,618.19h8.87V601.52H377v16.67H388.2V623H377v43.74c0,4.55,1.07,7.53,5.75,7.53a28.6,28.6,0,0,0,4.77-.36v4.34a20.21,20.21,0,0,1-6.18.85c-5.38,0-9.47-2.43-9.47-11V623H363Z" transform="translate(-5.38)"/><path d="M431.92,647.4c0,20.7-6.52,32-19.31,32-13.49,0-19.54-10.91-19.54-31.85,0-20.56,7.61-30.3,19.67-30.3C425.05,617.22,431.92,627.21,431.92,647.4Zm-33.36.24c0,18.62,5.33,26.88,13.94,26.88,8.84,0,13.94-8.49,13.94-27.11,0-16.75-4.87-25.34-13.94-25.34C404,622.07,398.56,629.14,398.56,647.64Z" transform="translate(-5.38)"/><path d="M444.35,638.73c0-9.38,0-16.22-.12-20.54h5.11c.12,1.9.25,4.89.25,11.26,2.75-7.55,8.86-12,16-12.11V623c-10.68.7-16,9.57-16,20.4v34.9h-5.25Z" transform="translate(-5.38)"/><path d="M474,618.19h5.25v60.09H474Zm0-25.53h5.24v11.58H474Z" transform="translate(-5.38)"/><path d="M530.52,647.4c0,20.7-6.52,32-19.31,32-13.48,0-19.53-10.91-19.53-31.85,0-20.56,7.6-30.3,19.67-30.3C523.66,617.22,530.52,627.21,530.52,647.4Zm-33.36.24c0,18.62,5.34,26.88,13.94,26.88,8.84,0,13.94-8.49,13.94-27.11,0-16.75-4.87-25.34-13.94-25.34C502.62,622.07,497.16,629.14,497.16,647.64Z" transform="translate(-5.38)"/><path d="M601,592.66v71c0,5,0,11,.13,14.59H596c-.12-1.56-.25-6.09-.25-9.19-1.92,5.85-5.87,10.27-14.63,10.27-12.39,0-17.91-10.12-17.91-31.84,0-19.69,7.78-30.3,19.49-30.3,8.6,0,11.61,3.93,13,7.28V592.66Zm-32.29,54.86c0,19.58,4.87,26.76,13.23,26.76,10.74,0,13.83-9.52,13.83-27,0-19.94-3.32-25.09-13.11-25.09C574.57,622.19,568.74,629.8,568.74,647.52Z" transform="translate(-5.38)"/><path d="M618.82,648.55c0,14.51,2.73,26,13.47,26,11.09,0,12.52-10.95,12.87-12.64h5.35c-.12,1.34-2,17.48-18.22,17.48-16.54,0-18.83-16.12-18.83-30.91,0-19,6-31.24,19.42-31.24,14.73,0,18.11,13,18.11,27.55,0,.52,0,2-.12,3.78Zm26.81-4.69c0-13.29-3.18-21.8-12.87-21.8-13,0-13.58,17.82-13.82,21.8Z" transform="translate(-5.38)"/><path d="M686.6,636.21c0-9.9,0-15-.12-18h5.11c.24,2.14.25,5.38.25,8.71,2.17-5.63,6.27-9.68,13.57-9.68,6.14,0,10.81,2.54,12.61,9.47,1.94-5.27,6.73-9.47,14.43-9.47,6.77,0,14.09,3.15,14.09,17.09v44H741.3V635.42c0-6.93-1.91-13.23-9.89-13.23-8.94,0-12.16,8.43-12.16,16.94v39.15H714V635.66c0-8.71-2.86-13.47-9.66-13.47-8.23,0-12.51,8.31-12.51,18.13v38H686.6Z" transform="translate(-5.38)"/><path d="M797.27,662.61c0,6.78,0,12.9.12,15.67h-5a63.1,63.1,0,0,1-.37-9c-1.82,6.24-7.32,10-14.87,10-5.95,0-15-2-15-17.91V618.19h5.36v41.9c0,8.83,2.73,14.42,10.83,14.42,7.52,0,13.58-4.88,13.58-20.13V618.19h5.36Z" transform="translate(-5.38)"/><path d="M813.28,661.54c.59,8,4.86,13,12.51,13,7.86,0,11.67-5,11.67-11.54,0-7.49-4-10.72-12.43-14.07-11.24-4.46-15-8.57-15-16.75,0-7.94,4.81-15,15.71-15,11.87,0,15.71,8,15.83,16h-5.35C836,629.93,835.08,622,825.54,622c-7,0-10,4.28-10,10,0,5.49,2.05,8.23,11.14,11.81,10.86,4.34,16.25,8.21,16.25,18.88,0,10.37-6.51,16.63-17.51,16.63s-17-6.77-17.5-17.82Z" transform="translate(-5.38)"/><path d="M854.14,618.19h5.25v60.09h-5.25Zm0-25.53h5.25v11.58h-5.25Z" transform="translate(-5.38)"/><path d="M908.48,661.26c-.24,2.1-1.68,18.1-17.75,18.1-14.72,0-18.93-13.94-18.93-31.14,0-17.51,5.64-31,19.77-31,15.95,0,16.91,15.54,16.91,17.85H903c-.12-2.52-1.31-13-11.43-13-10.36,0-14.28,11.2-14.28,26.05,0,16.27,4.15,26.41,13.69,26.41,10.13,0,11.55-10.25,12-13.26Z" transform="translate(-5.38)"/><path d="M951.86,669.29c0,4.3.36,7.64.48,9h-4.86a42.84,42.84,0,0,1-.6-7.64c-2.17,5.61-7.07,8.72-14.64,8.72-11.54,0-15.52-8.9-15.52-17.08,0-10.15,6.77-18.89,22.86-18.89a59.31,59.31,0,0,1,7.16.24v-9c0-5.49-1.19-12.63-10.72-12.63-10.82,0-11.31,8-11.67,12h-5.23c.24-8.42,4.33-16.86,17-16.86,10.86,0,15.71,5.54,15.71,16.37Zm-5-20.86a45.69,45.69,0,0,0-6.91-.35c-12.52,0-17.87,6.07-17.87,13.94,0,6.77,3.68,12.51,11,12.51,9.91,0,13.81-6.82,13.81-21.94Z" transform="translate(-5.38)"/><path d="M195.17,784.13H157.91v33.72h41.83l-2.56,17.89H137.39V719.64h59.54v18.19h-39v28.26h37.26Z" transform="translate(-5.38)"/><path d="M283.23,792.56c0-19.82.34-42.45.69-55.63h-.48c-4,22-10.44,61.22-18,98.81H246.63c-5.63-35-12.29-76.69-16-99.14H230c.69,13.56,1.21,37.89,1.21,57.94v41.2h-19V719.64h31.07c6.08,32.08,11.4,64.5,13.73,81.44h.18c2.36-15.75,9.63-50.73,15.69-81.44h30.34v116.1H283.23Z" transform="translate(-5.38)"/><path d="M394.58,792.56c0-19.82.34-42.45.69-55.63h-.48c-4,22-10.44,61.22-18,98.81H358c-5.63-35-12.3-76.69-16-99.14h-.64c.68,13.56,1.2,37.89,1.2,57.94v41.2h-19V719.64h31.07c6.08,32.08,11.4,64.5,13.74,81.44h.17c2.36-15.75,9.63-50.73,15.69-81.44h30.34v116.1H394.58Z" transform="translate(-5.38)"/><path d="M451.91,806.52l-5.77,29.22H425.32l26.89-116.1h27l27.17,116.1H484.55l-5.78-29.22Zm23.16-18c-4.33-22.22-7.8-38.45-9.62-49.54H465c-1.41,10.69-5.09,28.13-9.36,49.54Z" transform="translate(-5.38)"/><path d="M516.23,835.74V719.64h23.61c24,64.16,28.62,76.4,30,82.09H570c-1-14-1-31-1-50.06v-32h18.58v116.1H564.93c-24.79-68.41-29.19-80.74-30.7-86.06h-.17c.86,14.3.88,31.4.88,52.2v33.86Z" transform="translate(-5.38)"/><path d="M627.5,719.64v79.88c0,9.51,2.36,20.8,15.14,20.8,12.37,0,15-9.52,15-20.67v-80h20.82V800c0,20.84-8.14,37.78-36.18,37.78-27.6,0-35.65-15.93-35.65-37.79V719.64Z" transform="translate(-5.38)"/><path d="M754.51,784.13H717.25v33.72h41.83l-2.56,17.89H696.73V719.64h59.54v18.19h-39v28.26h37.26Z" transform="translate(-5.38)"/><path d="M771.71,719.64h20.82V818h39.73l-2,17.74H771.71Z" transform="translate(-5.38)"/><path d="M666.85,108l-32.7-18.88L479.88,0,325.6,89.08,292.9,108l-17.82,10.28,1.24,435.84L479.88,436.55,683.43,554.08l1.24-435.84ZM616.48,448.25l-136.6-78.88L343.27,448.25l-.36-126.56,60.51-34.93,34.48-19.91,42-24.24,42,24.24,34.48,19.91,60.51,34.93Zm.73-257.13-.14,52,0,10.84-6.76-3.9-27.7-16-102.7-59.3L377.17,234l-27.7,16-6.75,3.9,0-10.84-.15-52-.12-43.32L479.88,68.43,617.34,147.8Z" transform="translate(-5.38)"/></g></g></svg>