<?xml version="1.0" encoding="utf-8"?>
<!-- Generator: Adobe Illustrator 24.0.0, SVG Export Plug-In . SVG Version: 6.00 Build 0)  -->
<svg version="1.1" id="Capa_1" xmlns="http://www.w3.org/2000/svg" xmlns:xlink="http://www.w3.org/1999/xlink" x="0px" y="0px"
	 viewBox="0 0 947 837.8" style="enable-background:new 0 0 947 837.8;" xml:space="preserve">
<style type="text/css">
	.st0{fill:#FFFF00;}
</style>
<title>VctrRecurso 1</title>
<g id="Capa_2_1_">
	<g id="Capa_1-2">
		<path class="st0" d="M42.6,656.4c-0.4,5.2-2.8,23-20.7,23c-20.8,0-21.8-24.6-21.8-42.9c0-22.1,5.3-41.1,22.9-41.1
			c18.4,0,19.2,18.4,19.3,22.4h-5.6c-0.1-2.8-0.8-17.2-13.8-17.2c-15.2,0-17,21.6-17,35.8c0,18.4,2.1,37.8,16.3,37.8
			c12.3,0,14.5-13,14.9-17.8L42.6,656.4z"/>
		<path class="st0" d="M91.2,647.4c0,20.7-6.5,32-19.3,32c-13.5,0-19.5-10.9-19.5-31.8c0-20.6,7.6-30.3,19.7-30.3
			C84.3,617.2,91.2,627.2,91.2,647.4z M57.8,647.6c0,18.6,5.3,26.9,13.9,26.9c8.8,0,13.9-8.5,13.9-27.1c0-16.8-4.9-25.3-13.9-25.3
			C63.3,622.1,57.8,629.1,57.8,647.6z"/>
		<path class="st0" d="M103.6,636.7c0-12.3-0.1-16-0.1-18.5h5.1c0.1,1.4,0.2,3.7,0.2,9c2.2-5.6,6.6-9.9,14.9-9.9
			c8,0,15.5,4.1,15.5,18.3v42.8h-5.4v-42c0-8.2-3.2-14.1-10.8-14.1c-10,0-14,6.9-14,21.3v34.8h-5.4V636.7z"/>
		<path class="st0" d="M155.4,661.5c0.6,8,4.9,13,12.5,13c7.9,0,11.7-5,11.7-11.5c0-7.5-4-10.7-12.4-14.1c-11.2-4.5-15-8.6-15-16.8
			c0-7.9,4.8-15,15.7-15c11.9,0,15.7,8,15.8,16h-5.4c-0.2-3.3-1.1-11.2-10.7-11.2c-7,0-10,4.3-10,10c0,5.5,2,8.2,11.1,11.8
			c10.9,4.3,16.3,8.2,16.3,18.9c0,10.4-6.5,16.6-17.5,16.6s-17-6.8-17.5-17.8L155.4,661.5z"/>
		<path class="st0" d="M199,648.5c0,14.5,2.7,26,13.5,26c11.1,0,12.5-11,12.9-12.6h5.3c-0.1,1.3-2,17.5-18.2,17.5
			c-16.5,0-18.8-16.1-18.8-30.9c0-19,6-31.2,19.4-31.2c14.7,0,18.1,13,18.1,27.5c0,0.5,0,2-0.1,3.8L199,648.5z M225.8,643.9
			c0-13.3-3.2-21.8-12.9-21.8c-13,0-13.6,17.8-13.8,21.8H225.8z"/>
		<path class="st0" d="M243.3,638.7c0-9.4,0-16.2-0.1-20.5h5.1c0.1,1.9,0.2,4.9,0.2,11.3c2.8-7.5,8.9-12,16-12.1v5.7
			c-10.7,0.7-16,9.6-16,20.4v34.9h-5.2V638.7z"/>
		<path class="st0" d="M276.4,618.2c5.7,21.1,13,47.8,14.1,53.4h0.1c0.6-4.9,12.2-44.5,14.7-53.4h5.4l-17.4,60.1h-5.7l-16.6-60.1
			H276.4z"/>
		<path class="st0" d="M349.9,669.3c0,4.3,0.4,7.6,0.5,9h-4.9c-0.4-2.5-0.6-5.1-0.6-7.6c-2.2,5.6-7.1,8.7-14.6,8.7
			c-11.5,0-15.5-8.9-15.5-17.1c0-10.2,6.8-18.9,22.9-18.9c2.4-0.1,4.8,0,7.2,0.2v-9c0-5.5-1.2-12.6-10.7-12.6
			c-10.8,0-11.3,8-11.7,12h-5.2c0.2-8.4,4.3-16.9,17-16.9c10.9,0,15.7,5.5,15.7,16.4L349.9,669.3z M344.9,648.4
			c-2.3-0.3-4.6-0.4-6.9-0.3c-12.5,0-17.9,6.1-17.9,13.9c0,6.8,3.7,12.5,11,12.5c9.9,0,13.8-6.8,13.8-21.9L344.9,648.4z"/>
		<path class="st0" d="M357.6,618.2h8.9v-16.7h5.1v16.7h11.2v4.8h-11.2v43.7c0,4.5,1.1,7.5,5.8,7.5c1.6,0,3.2-0.1,4.8-0.4v4.3
			c-2,0.6-4.1,0.9-6.2,0.8c-5.4,0-9.5-2.4-9.5-11V623h-8.9V618.2z"/>
		<path class="st0" d="M426.5,647.4c0,20.7-6.5,32-19.3,32c-13.5,0-19.5-10.9-19.5-31.8c0-20.6,7.6-30.3,19.7-30.3
			C419.7,617.2,426.5,627.2,426.5,647.4z M393.2,647.6c0,18.6,5.3,26.9,13.9,26.9c8.8,0,13.9-8.5,13.9-27.1
			c0-16.8-4.9-25.3-13.9-25.3C398.6,622.1,393.2,629.1,393.2,647.6z"/>
		<path class="st0" d="M439,638.7c0-9.4,0-16.2-0.1-20.5h5.1c0.1,1.9,0.3,4.9,0.3,11.3c2.8-7.5,8.9-12,16-12.1v5.7
			c-10.7,0.7-16,9.6-16,20.4v34.9H439L439,638.7z"/>
		<path class="st0" d="M468.6,618.2h5.3v60.1h-5.3V618.2z M468.6,592.7h5.2v11.6h-5.2V592.7z"/>
		<path class="st0" d="M525.1,647.4c0,20.7-6.5,32-19.3,32c-13.5,0-19.5-10.9-19.5-31.8c0-20.6,7.6-30.3,19.7-30.3
			C518.3,617.2,525.1,627.2,525.1,647.4z M491.8,647.6c0,18.6,5.3,26.9,13.9,26.9c8.8,0,13.9-8.5,13.9-27.1
			c0-16.8-4.9-25.3-13.9-25.3C497.2,622.1,491.8,629.1,491.8,647.6L491.8,647.6z"/>
		<path class="st0" d="M595.6,592.7v71c0,5,0,11,0.1,14.6h-5.1c-0.1-1.6-0.3-6.1-0.3-9.2c-1.9,5.8-5.9,10.3-14.6,10.3
			c-12.4,0-17.9-10.1-17.9-31.8c0-19.7,7.8-30.3,19.5-30.3c8.6,0,11.6,3.9,13,7.3v-31.8H595.6z M563.3,647.5
			c0,19.6,4.9,26.8,13.2,26.8c10.7,0,13.8-9.5,13.8-27c0-19.9-3.3-25.1-13.1-25.1C569.2,622.2,563.4,629.8,563.3,647.5L563.3,647.5z
			"/>
		<path class="st0" d="M613.4,648.5c0,14.5,2.7,26,13.5,26c11.1,0,12.5-11,12.9-12.6h5.3c-0.1,1.3-2,17.5-18.2,17.5
			c-16.5,0-18.8-16.1-18.8-30.9c0-19,6-31.2,19.4-31.2c14.7,0,18.1,13,18.1,27.5c0,0.5,0,2-0.1,3.8L613.4,648.5z M640.3,643.9
			c0-13.3-3.2-21.8-12.9-21.8c-13,0-13.6,17.8-13.8,21.8H640.3z"/>
		<path class="st0" d="M681.2,636.2c0-9.9,0-15-0.1-18h5.1c0.2,2.1,0.3,5.4,0.3,8.7c2.2-5.6,6.3-9.7,13.6-9.7
			c6.1,0,10.8,2.5,12.6,9.5c1.9-5.3,6.7-9.5,14.4-9.5c6.8,0,14.1,3.2,14.1,17.1v44h-5.2v-42.9c0-6.9-1.9-13.2-9.9-13.2
			c-8.9,0-12.2,8.4-12.2,16.9v39.2h-5.3v-42.6c0-8.7-2.9-13.5-9.7-13.5c-8.2,0-12.5,8.3-12.5,18.1v38h-5.2V636.2z"/>
		<path class="st0" d="M791.9,662.6c0,6.8,0,12.9,0.1,15.7h-5c-0.3-3-0.5-6-0.4-9c-1.8,6.2-7.3,10-14.9,10c-6,0-15-2-15-17.9v-43.2
			h5.4v41.9c0,8.8,2.7,14.4,10.8,14.4c7.5,0,13.6-4.9,13.6-20.1v-36.2h5.4L791.9,662.6z"/>
		<path class="st0" d="M807.9,661.5c0.6,8,4.9,13,12.5,13c7.9,0,11.7-5,11.7-11.5c0-7.5-4-10.7-12.4-14.1c-11.2-4.5-15-8.6-15-16.8
			c0-7.9,4.8-15,15.7-15c11.9,0,15.7,8,15.8,16h-5.3c-0.2-3.3-1.1-11.2-10.7-11.2c-7,0-10,4.3-10,10c0,5.5,2,8.2,11.1,11.8
			c10.9,4.3,16.3,8.2,16.3,18.9c0,10.4-6.5,16.6-17.5,16.6s-17-6.8-17.5-17.8L807.9,661.5z"/>
		<path class="st0" d="M848.8,618.2h5.3v60.1h-5.3V618.2z M848.8,592.7h5.3v11.6h-5.3V592.7z"/>
		<path class="st0" d="M903.1,661.3c-0.2,2.1-1.7,18.1-17.8,18.1c-14.7,0-18.9-13.9-18.9-31.1c0-17.5,5.6-31,19.8-31
			c16,0,16.9,15.5,16.9,17.8h-5.5c-0.1-2.5-1.3-13-11.4-13c-10.4,0-14.3,11.2-14.3,26c0,16.3,4.2,26.4,13.7,26.4
			c10.1,0,11.5-10.3,12-13.3L903.1,661.3z"/>
		<path class="st0" d="M946.5,669.3c0,4.3,0.4,7.6,0.5,9h-4.9c-0.4-2.5-0.6-5.1-0.6-7.6c-2.2,5.6-7.1,8.7-14.6,8.7
			c-11.5,0-15.5-8.9-15.5-17.1c0-10.2,6.8-18.9,22.9-18.9c2.4-0.1,4.8,0,7.2,0.2v-9c0-5.5-1.2-12.6-10.7-12.6
			c-10.8,0-11.3,8-11.7,12h-5.2c0.2-8.4,4.3-16.9,17-16.9c10.9,0,15.7,5.5,15.7,16.4L946.5,669.3z M941.5,648.4
			c-2.3-0.3-4.6-0.4-6.9-0.3c-12.5,0-17.9,6.1-17.9,13.9c0,6.8,3.7,12.5,11,12.5c9.9,0,13.8-6.8,13.8-21.9L941.5,648.4z"/>
		<path class="st0" d="M189.8,784.1h-37.3v33.7h41.8l-2.6,17.9H132V719.6h59.5v18.2h-39v28.3h37.3L189.8,784.1z"/>
		<path class="st0" d="M277.9,792.6c0-19.8,0.3-42.5,0.7-55.6h-0.5c-4,22-10.4,61.2-18,98.8h-18.8c-5.6-35-12.3-76.7-16-99.1h-0.6
			c0.7,13.6,1.2,37.9,1.2,57.9v41.2h-19V719.6h31.1c6.1,32.1,11.4,64.5,13.7,81.4h0.2c2.4-15.8,9.6-50.7,15.7-81.4h30.3v116.1h-20
			V792.6z"/>
		<path class="st0" d="M389.2,792.6c0-19.8,0.3-42.5,0.7-55.6h-0.5c-4,22-10.4,61.2-18,98.8h-18.8c-5.6-35-12.3-76.7-16-99.1H336
			c0.7,13.6,1.2,37.9,1.2,57.9v41.2h-19V719.6h31.1c6.1,32.1,11.4,64.5,13.7,81.4h0.2c2.4-15.8,9.6-50.7,15.7-81.4h30.3v116.1h-20
			V792.6z"/>
		<path class="st0" d="M446.5,806.5l-5.8,29.2h-20.8l26.9-116.1h27L501,835.7h-21.8l-5.8-29.2H446.5z M469.7,788.5
			c-4.3-22.2-7.8-38.5-9.6-49.5h-0.5c-1.4,10.7-5.1,28.1-9.4,49.5H469.7z"/>
		<path class="st0" d="M510.8,835.7V719.6h23.6c24,64.2,28.6,76.4,30,82.1h0.2c-1-14-1-31-1-50.1v-32h18.6v116.1h-22.7
			c-24.8-68.4-29.2-80.7-30.7-86.1h-0.2c0.9,14.3,0.9,31.4,0.9,52.2v33.9L510.8,835.7z"/>
		<path class="st0" d="M622.1,719.6v79.9c0,9.5,2.4,20.8,15.1,20.8c12.4,0,15-9.5,15-20.7v-80h20.8V800c0,20.8-8.1,37.8-36.2,37.8
			c-27.6,0-35.7-15.9-35.7-37.8v-80.4H622.1z"/>
		<path class="st0" d="M749.1,784.1h-37.3v33.7h41.8l-2.6,17.9h-59.8V719.6h59.5v18.2h-39v28.3h37.3L749.1,784.1z"/>
		<path class="st0" d="M766.3,719.6h20.8V818h39.7l-2,17.7h-58.5V719.6z"/>
		<path class="st0" d="M661.5,108l-32.7-18.9L474.5,0L320.2,89.1L287.5,108l-17.8,10.3l1.2,435.8l203.6-117.6L678,554.1l1.2-435.8
			L661.5,108z M611.1,448.3l-136.6-78.9l-136.6,78.9l-0.4-126.6l60.5-34.9l34.5-19.9l42-24.2l42,24.2l34.5,19.9l60.5,34.9
			L611.1,448.3z M611.8,191.1l-0.1,52V254l-6.8-3.9l-27.7-16l-102.7-59.3L371.8,234l-27.7,16l-6.8,3.9v-10.8l-0.1-52l-0.1-43.3
			l137.4-79.3L612,147.8L611.8,191.1z"/>
	</g>
</g>
</svg>
