<svg xmlns="http://www.w3.org/2000/svg" viewBox="0 0 409.59 554.08"><title>VctrRecurso 2</title><g id="Capa_2" data-name="Capa 2"><g id="Capa_1-2" data-name="Capa 1"><path d="M391.77,108l-32.7-18.88L204.79,0,50.51,89.08,17.82,108,0,118.24,1.24,554.08,204.79,436.55,408.35,554.08l1.24-435.84ZM341.4,448.25,204.79,369.37,68.19,448.25l-.36-126.56,60.5-34.93,34.48-19.91,42-24.24,42,24.24,34.48,19.91,60.51,34.93Zm.73-257.13-.15,52,0,10.84L335.2,250l-27.7-16-102.71-59.3L102.09,234,74.38,250l-6.75,3.9,0-10.84-.14-52-.13-43.32L204.79,68.43,342.25,147.8Z"/></g></g></svg>